# xmcd CD database file
#
# Track frame offsets:
#	150
#	15140
#	34417
#	50167
#	70040
#	88417
#	109240
#	125195
#	145942
#	164565
#	184795
#	204252
#
# Disc length: 2937 seconds
#
# Revision: 4
# Processed by: cddbd v1.4PL0 Copyright (c) Steve Scherf et al.
# Submitted via: CDex 1.40Release
#
DISCID=b00b770c
DTITLE=Johnny Logan - Reach for me
DYEAR=1900
DGENRE=
TTITLE0=What's another year
TTITLE1=Hold me now
TTITLE2=Why me
TTITLE3=Angels
TTITLE4=Taking all the blame
TTITLE5=How do I live
TTITLE6=Surprised
TTITLE7=Let's make love
TTITLE8=Amazed
TTITLE9=One
TTITLE10=Reach for me
TTITLE11=Hold me now 2001
EXTD=
EXTT0=
EXTT1=
EXTT2=
EXTT3=
EXTT4=
EXTT5=
EXTT6=
EXTT7=
EXTT8=
EXTT9=
EXTT10=
EXTT11=
PLAYORDER=
